# xmcd
#
# Track frame offsets:
#	150
#	18373
#	35560
#	62696
#	78769
#	104732
#	137627
#	155893
#	173781
#	192343
#	207282
#	227790
#	263763
#	289153
#	302132
#	312379
#
# Disc length: 4615 seconds
#
# Revision: 0
# Processed by: cddbd v1.5.2PL0 Copyright (c) Steve Scherf et al.
# Submitted via: audiograbber 1.83.01
#
DISCID=e5120510
DTITLE=Various Artist - Motown Disco
DYEAR=1900
DGENRE=Motown
TTITLE0=Dazz Band - Let It Whip
TTITLE1=Rick James - Give It To Me Baby
TTITLE2=Teena Marie - Behind The Groove
TTITLE3=Jermaine Jackson Ft. Stevie Wonder - Let's Get Serious
TTITLE4=Tata Vega - Get It Up For Love
TTITLE5=Willie Hutch - In And Out
TTITLE6=Diana Ross - Upside Down
TTITLE7=Diana Ross - Give Up (Original Chic Mix)
TTITLE8=Marvin Gaye - Got To Give It Up (Pt 1)
TTITLE9=The Supremes - You're My Driving Wheel (Promo Version)
TTITLE10=Eddie Kendricks - Goin' Up In Smoke
TTITLE11=Eddie Kendricks - Keep On Truckin'
TTITLE12=Thelma Houston - Don't Leave Me This Way
TTITLE13=The Miracles Ft. Billy Griffin - Love Machine
TTITLE14=Magic Disco Machine - (I Could Never Make) A Better Man Than You
TTITLE15=The Jackson 5 - I Am Love ( Pt 1 and 2)
EXTD=
EXTT0=
EXTT1=
EXTT2=
EXTT3=
EXTT4=
EXTT5=
EXTT6=
EXTT7=
EXTT8=
EXTT9=
EXTT10=
EXTT11=
EXTT12=
EXTT13=
EXTT14=
EXTT15=
PLAYORDER=
